# AST/ASF file generated using VICON BodyLanguage
# -----------------------------------------------
:version 1.10
:name VICON
:units
  mass 1.0
  length 0.45
  angle deg
:documentation
   .ast/.asf automatically generated from VICON data using
   VICON BodyBuilder and BodyLanguage model FoxedUp or BRILLIANT.MOD
:root
   order TX TY TZ RX RY RZ
   axis XYZ
   position 0 0 0  
   orientation 0 0 0 
:bonedata
  begin
     id 1 
     name lhipjoint
     direction 0.690799 -0.707083 0.151096 
     length 2.54797 
     axis 0 0 0  XYZ
  end
  begin
     id 2 
     name lfemur
     direction 0.34202 -0.939693 0  
     length 7.21646  
     axis 0 0 20  XYZ
    dof rx ry rz
    limits (-160.0 20.0)
           (-70.0 70.0)
           (-60.0 70.0)
  end
  begin
     id 3 
     name ltibia
     direction 0.34202 -0.939693 0   
     length 8.16759   
     axis 0 0 20   XYZ
    dof rx
    limits (-10.0 170.0)
  end
  begin
     id 4 
     name lfoot
     direction 0.0487203 -0.133858 0.989802   
     length 1.93375   
     axis -90 7.62852e-016 20   XYZ
    dof rx rz
    limits (-45.0 90.0)
           (-70.0 20.0)
  end
  begin
     id 5 
     name ltoes
     direction 1.53453e-011 -4.21783e-011 1   
     length 0.979747   
     axis -90 7.62852e-016 20   XYZ
    dof rx
    limits (-90.0 20.0)
  end
  begin
     id 6 
     name rhipjoint
     direction -0.694693 -0.703425 0.150315   
     length 2.56122  
     axis 0 0 0  XYZ 
  end
  begin
     id 7 
     name rfemur
     direction -0.34202 -0.939693 0   
     length 7.36786   
     axis 0 0 -20   XYZ
    dof rx ry rz
    limits (-160.0 20.0)
           (-70.0 70.0)
           (-70.0 60.0)
  end
  begin
     id 8 
     name rtibia
     direction -0.34202 -0.939693 0   
     length 8.07288   
     axis 0 0 -20   XYZ
    dof rx
    limits (-10.0 170.0)
 end
 begin
     id 9 
     name rfoot
     direction -0.0428397 -0.117701 0.992125   
     length 1.88295  
     axis -90 -7.62852e-016 -20   XYZ
    dof rx rz
    limits (-45.0 90.0)
           (-20.0 70.0)
  end
  begin
     id 10 
     name rtoes
     direction -1.53456e-011 -4.2187e-011 1   
     length 0.955578   
     axis -90 -7.62852e-016 -20   XYZ
    dof rx
    limits (-90.0 20.0)
  end
  begin
     id 11 
     name lowerback
     direction 0.0288145 0.999398 -0.0193241   
     length 1.92149   
     axis 0 0 0   XYZ
    dof rx ry rz
    limits (-20.0 45.0)
           (-30.0 30.0)
           (-30.0 30.0)
  end
  begin
     id 12 
     name upperback
     direction 0.0233784 0.998099 0.0570278   
     length 1.90435   
     axis 0 0 0   XYZ
    dof rx ry rz
    limits (-20.0 45.0)
           (-30.0 30.0)
           (-30.0 30.0)
  end
  begin
     id 13 
     name thorax
     direction 0.0096694 0.997833 0.0650817   
     length 1.9111   
     axis 0 0 0   XYZ
    dof rx ry rz
    limits (-20.0 45.0)
           (-30.0 30.0)
           (-30.0 30.0)
  end
  begin
     id 14 
     name lowerneck
     direction 0.00516803 0.999916 0.0118722   
     length 1.74664   
     axis 0 0 0   XYZ
    dof rx ry rz
    limits (-20.0 45.0)
           (-30.0 30.0)
           (-30.0 30.0)
  end
  begin
     id 15 
     name upperneck
     direction -0.0510851 0.996117 -0.071696   
     length 1.68498   
     axis 0 0 0   XYZ
    dof rx ry rz
    limits (-20.0 45.0)
           (-30.0 30.0)
           (-30.0 30.0)
  end
  begin
     id 16
     name head
     direction -0.019188 0.999436 -0.0275702  
     length 1.83483  
     axis 0 0 0   XYZ
    dof rx ry rz
    limits (-20.0 45.0)
           (-30.0 30.0)
           (-30.0 30.0)
  end
  begin
     id 17 
     name lclavicle
     direction 0.967006 0.248456 -0.0562957  
     length 3.39395  
     axis 0 0 0   XYZ
    dof ry rz
    limits (-20.0 10.0)
           (0.0 20.0)
  end
  begin
     id 18 
     name lhumerus
     direction 1 -4.48962e-011 -5.62711e-019   
     length 5.24318   
     axis 180 -30 -90   XYZ
    dof rx ry rz
    limits (-60.0 90.0)
           (-90.0 90.0)
           (-90.0 90.0)
  end
  begin
     id 19
     name lradius
     direction 1 -4.48966e-011 7.90625e-027   
     length 2.98999   
     axis 180 -30 -90   XYZ
    dof rx
    limits (-10.0 170.0)
  end
  begin
     id 20
     name lwrist
     direction 1 -4.48959e-011 1.61068e-026   
     length 1.49499   
     axis -9.31229e-015 90 90   XYZ
    dof ry
    limits (-180.0 0.0)
 end
  begin
     id 21 
     name lhand
     direction 1 -4.49017e-011 3.22136e-026   
     length 0.726745   
     axis -2.0555e-014 90 90   XYZ
    dof rx rz
    limits (-90.0 90.0)
           (-45.0 45.0)
  end
  begin
     id 22 
     name lfingers
     direction 1 -4.4898e-011 6.44272e-026   
     length 0.58592   
     axis -4.11101e-014 90 90   XYZ
    dof rx
    limits (0.0 90.0)
  end
  begin
     id 23
     name lthumb
     direction 0.707107 -6.34922e-011 0.707107   
     length 0.841268   
     axis -90 45 2.85299e-015   XYZ
    dof rx rz
    limits (-45.0 45.0)
           (-45.0 45.0)
  end
  begin
     id 24 
     name rclavicle
     direction -0.972232 0.230238 0.0419005   
     length 3.40416  
     axis 0 0 0   XYZ 
    dof ry rz
    limits (-10.0 20.0)
           (-20.0 0.0)
  end
  begin
     id 25 
     name rhumerus
     direction -1 -4.48976e-011 2.48487e-027  
     length 5.37045   
     axis 180 30 90   XYZ
    dof rx ry rz
    limits (-90.0 60.0)
           (-90.0 90.0)
           (-90.0 90.0)
  end
  begin
     id 26 
     name rradius
     direction -1 -4.48942e-011 7.87951e-027   
     length 2.92792   
     axis 180 30 90   XYZ
    dof rx
    limits (-10.0 170.0)
  end
  begin
     id 27 
     name rwrist
     direction -1 -4.48969e-011 1.61068e-026   
     length 1.46396   
     axis -9.31229e-015 -90 -90   XYZ
    dof ry
    limits (-180.0 0.0)
  end
  begin
     id 28
     name rhand
     direction -1 -4.49043e-011 3.22136e-026   
     length 0.784497   
     axis -2.0555e-014 -90 -90   XYZ
    dof rx rz
    limits (-90.0 90.0)
           (-45.0 45.0)
  end
  begin
     id 29
     name rfingers
     direction -1 -4.48823e-011 6.44272e-026   
     length 0.632482   
     axis -4.11101e-014 -90 -90   XYZ
    dof rx
    limits (0.0 90.0)
  end
  begin
     id 30
     name rthumb
     direction -0.707107 -6.34923e-011 0.707107   
     length 0.908121   
     axis -90 -45 -2.85299e-015   XYZ
    dof rx rz
    limits (-45.0 45.0)
           (-45.0 45.0)
  end
:hierarchy
  begin
    root lhipjoint rhipjoint lowerback
    lhipjoint lfemur
    lfemur ltibia
    ltibia lfoot
    lfoot ltoes
    rhipjoint rfemur
    rfemur rtibia
    rtibia rfoot
    rfoot rtoes
    lowerback upperback
    upperback thorax
    thorax lowerneck lclavicle rclavicle
    lowerneck upperneck
    upperneck head
    lclavicle lhumerus
    lhumerus lradius
    lradius lwrist
    lwrist lhand lthumb
    lhand lfingers
    rclavicle rhumerus
    rhumerus rradius
    rradius rwrist
    rwrist rhand rthumb
    rhand rfingers
  end

#!OML:ASF F:\VICON\USERDATA\INSTALL\rory3\rory3.ASF
:FULLY-SPECIFIED
:DEGREES
624
root 0.823266 18.2021 0.482428 27.8019 0.676017 2.30698
lowerback 14.6991 -1.08898 8.14886
upperback -5.31368 0.862345 4.86975
thorax -14.3253 -0.0413366 0.654071
lowerneck -5.15907 -0.937768 1.0107
upperneck -14.0316 -1.57579 -2.4266
head -3.68865 -0.770332 -0.947229
rclavicle -1.11319e-014 -3.97569e-014
rhumerus -22.8399 11.5825 -93.8079
rradius 140.08
rwrist 46.07
rhand 22.7428 -3.0402
rfingers 7.12502
rthumb 47.0811 -25.6706
lclavicle -1.11319e-014 -3.97569e-014
lhumerus -40.4318 -6.96045 88.4592
lradius 133.938
lwrist -28.2344
lhand -10.1551 24.1072
lfingers 7.12502
lthumb 15.8343 53.4797
rfemur -37.4913 21.5587 2.14273
rtibia 17.8415
rfoot -25.7069 -31.3289
rtoes 32.9007
lfemur -34.1328 -10.4508 -17.6049
ltibia 16.2002
lfoot -1.50125 14.2677
ltoes -17.9402
625
root 0.818292 18.2029 0.484828 27.8119 0.600221 2.3907
lowerback 14.623 -1.09509 8.18045
upperback -5.27435 0.849142 4.88589
thorax -14.2323 -0.0467583 0.654586
lowerneck -5.01006 -0.90297 1.16594
upperneck -14.2337 -1.57428 -2.78029
head -3.79562 -0.763505 -1.09286
rclavicle 0 -1.59028e-014
rhumerus -22.7898 11.6991 -93.8149
rradius 140.046
rwrist 45.7659
rhand 22.4327 -3.13761
rfingers 7.12502
rthumb 46.7942 -25.894
lclavicle 0 -1.59028e-014
lhumerus -40.41 -6.8626 88.3866
lradius 133.961
lwrist -28.2365
lhand -10.0538 23.9062
lfingers 7.12502
lthumb 15.9318 53.2709
rfemur -37.5434 21.4434 2.11001
rtibia 17.9422
rfoot -25.4686 -31.3047
rtoes 32.5655
lfemur -34.0633 -10.4696 -17.6825
ltibia 16.0799
lfoot -1.53476 14.3147
ltoes -17.5204
626
root 0.815155 18.2037 0.487142 27.7953 0.551118 2.41728
lowerback 14.6208 -1.11336 8.28565
upperback -5.27635 0.851618 4.92833
thorax -14.2352 -0.0525506 0.643638
lowerneck -4.95007 -0.851233 1.25134
upperneck -14.2091 -1.53853 -3.08818
head -3.80276 -0.738909 -1.21111
rclavicle 7.95139e-016 -1.59028e-014
rhumerus -22.792 11.8133 -93.7909
rradius 139.991
rwrist 45.4364
rhand 22.0859 -3.28405
rfingers 7.12502
rthumb 46.4731 -26.179
lclavicle 7.95139e-016 -1.59028e-014
lhumerus -40.5106 -6.79672 88.3566
lradius 133.99
lwrist -28.2751
lhand -9.97851 23.832
lfingers 7.12502
lthumb 16.0043 53.1909
rfemur -37.55 21.3569 2.14198
rtibia 18.0169
rfoot -25.403 -31.1493
rtoes 32.6717
lfemur -33.9819 -10.4741 -17.7141
ltibia 15.9839
lfoot -1.52467 14.3798
ltoes -17.2764
627
root 0.810505 18.2031 0.48886 27.7991 0.454721 2.47239
lowerback 14.5988 -1.12406 8.30782
upperback -5.28903 0.847412 4.98407
thorax -14.2388 -0.0533494 0.695763
lowerneck -4.80662 -0.769364 1.28781
upperneck -14.2328 -1.45782 -3.35812
head -3.84019 -0.689644 -1.30959
rclavicle -1.19271e-014 1.59028e-014
rhumerus -22.7719 11.8447 -93.7377
rradius 140.065
rwrist 45.7049
rhand 22.7183 -3.19256
rfingers 7.12502
rthumb 47.0585 -25.833
lclavicle -1.19271e-014 1.59028e-014
lhumerus -40.5761 -6.70519 88.3487
lradius 133.999
lwrist -28.2642
lhand -10.0404 23.9046
lfingers 7.12502
lthumb 15.9447 53.2683
rfemur -37.5936 21.282 2.12123
rtibia 18.0714
rfoot -25.1139 -31.1382
rtoes 32.3282
lfemur -33.9285 -10.455 -17.785
ltibia 15.909
lfoot -1.45486 14.4224
ltoes -17.4249
628
root 0.804931 18.2039 0.490826 27.8229 0.357361 2.47301
lowerback 14.5432 -1.1154 8.37653
upperback -5.29609 0.87321 5.0353
thorax -14.2134 -0.0440997 0.707805
lowerneck -4.54382 -0.735177 1.3548
upperneck -14.3777 -1.4472 -3.64108
head -3.94628 -0.67429 -1.41829
rclavicle -1.90833e-014 5.56597e-014
rhumerus -22.7961 11.789 -93.7084
rradius 140.121
rwrist 45.9887
rhand 23.2617 -2.90717
rfingers 7.12502
rthumb 47.5606 -25.3224
lclavicle -1.90833e-014 5.56597e-014
lhumerus -40.6473 -6.65168 88.3345
lradius 134.021
lwrist -28.2339
lhand -10.2169 23.8769
lfingers 7.12502
lthumb 15.7747 53.2541
rfemur -37.6677 21.244 2.143
rtibia 18.1431
rfoot -24.7292 -31.2558
rtoes 31.6329
lfemur -33.8878 -10.3886 -17.8025
ltibia 15.8354
lfoot -1.44655 14.447
ltoes -17.5201
629
root 0.799845 18.2038 0.494349 27.893 0.276143 2.49888
lowerback 14.4263 -1.08897 8.43393
upperback -5.31288 0.910388 5.0636
thorax -14.1601 -0.0295545 0.696262
lowerneck -4.33654 -0.717472 1.49739
upperneck -14.4864 -1.46586 -3.98386
head -4.03249 -0.675497 -1.56058
rclavicle 7.95139e-016 -6.36111e-014
rhumerus -22.8642 11.7023 -93.6735
rradius 140.135
rwrist 45.9604
rhand 23.2813 -2.80856
rfingers 7.12502
rthumb 47.5787 -25.2156
lclavicle 7.95139e-016 -6.36111e-014
lhumerus -40.5879 -6.66431 88.3981
lradius 133.89
lwrist -28.2895
lhand -10.2944 23.8324
lfingers 7.12502
lthumb 15.7001 53.2155
rfemur -37.7872 21.1598 2.13208
rtibia 18.2254
rfoot -24.4927 -31.3083
rtoes 31.2077
lfemur -33.8978 -10.3384 -17.8291
ltibia 15.7681
lfoot -1.54346 14.4975
ltoes -17.047
630
root 0.79459 18.2021 0.49739 27.9721 0.133928 2.63341
lowerback 14.3426 -1.04725 8.37096
upperback -5.34848 0.94667 5.06718
thorax -14.1486 -0.00735117 0.72559
lowerneck -4.14897 -0.705495 1.61644
upperneck -14.5788 -1.49095 -4.31703
head -4.10953 -0.678966 -1.69608
rclavicle -1.43125e-014 -2.22639e-014
rhumerus -22.9385 11.7254 -93.6466
rradius 140.076
rwrist 45.6899
rhand 22.8776 -2.99253
rfingers 7.12502
rthumb 47.2057 -25.5676
lclavicle -1.43125e-014 -2.22639e-014
lhumerus -40.3866 -6.64083 88.5268
lradius 133.614
lwrist -28.3893
lhand -10.1544 23.92
lfingers 7.12502
lthumb 15.835 53.2925
rfemur -37.8855 21.0448 1.98833
rtibia 18.2475
rfoot -24.5231 -31.0641
rtoes 31.6707
lfemur -33.956 -10.3202 -17.9795
ltibia 15.7672
lfoot -1.53761 14.523
ltoes -17.0966
631
root 0.789014 18.2019 0.498384 27.9931 0.000186349 2.68848
lowerback 14.3115 -1.03609 8.36767
upperback -5.36435 0.962001 5.09514
thorax -14.1483 0.00141634 0.755146
lowerneck -3.94293 -0.682943 1.70789
upperneck -14.6303 -1.49304 -4.58699
head -4.17335 -0.671744 -1.80588
rclavicle -1.03368e-014 3.33958e-014
rhumerus -23.014 11.9709 -93.7506
rradius 139.969
rwrist 45.5984
rhand 22.3187 -3.42954
rfingers 7.12502
rthumb 46.6887 -26.2317
lclavicle -1.03368e-014 3.33958e-014
lhumerus -40.3699 -6.51048 88.5056
lradius 133.526
lwrist -28.4179
lhand -10.0617 23.8951
lfingers 7.12502
lthumb 15.9243 53.2604
rfemur -37.9296 20.9953 1.93965
rtibia 18.2428
rfoot -24.3244 -31.0362
rtoes 31.398
lfemur -33.9702 -10.3441 -18.0171
ltibia 15.792
lfoot -1.54445 14.6356
ltoes -16.8983
632
root 0.782271 18.2037 0.500194 27.9445 0.0207173 2.52939
lowerback 14.3328 -1.07057 8.61349
upperback -5.36253 0.981234 5.19674
thorax -14.1629 -0.00578684 0.729208
lowerneck -3.60356 -0.649597 1.81525
upperneck -14.7961 -1.48733 -4.88242
head -4.30523 -0.657541 -1.93029
rclavicle 9.54166e-015 1.11319e-014
rhumerus -23.0892 12.19 -93.8058
rradius 140.052
rwrist 45.9808
rhand 22.7113 -3.88641
rfingers 7.12502
rthumb 47.0519 -26.5297
lclavicle 9.54166e-015 1.11319e-014
lhumerus -40.5774 -6.40441 88.5035
lradius 133.617
lwrist -28.2723
lhand -10.0317 23.9688
lfingers 7.12502
lthumb 15.9531 53.3318
rfemur -37.8988 21.103 2.13237
rtibia 18.2405
rfoot -24.2036 -31.1789
rtoes 31.0219
lfemur -33.9121 -10.3785 -17.7876
ltibia 15.8018
lfoot -1.59709 14.7437
ltoes -16.6449
633
root 0.775874 18.2031 0.503389 27.9021 0.0335009 2.44946
lowerback 14.3412 -1.08966 8.79209
upperback -5.3491 1.0041 5.29278
thorax -14.155 -0.00490263 0.732483
lowerneck -3.28571 -0.589059 1.94371
upperneck -14.9883 -1.45662 -5.26617
head -4.44459 -0.627842 -2.09161
rclavicle -1.98785e-014 7.63333e-014
rhumerus -23.1268 12.3042 -93.7529
rradius 140.172
rwrist 46.2519
rhand 23.2359 -4.17174
rfingers 7.12502
rthumb 47.5368 -26.5978
lclavicle -1.98785e-014 7.63333e-014
lhumerus -40.6865 -6.36486 88.5563
lradius 133.63
lwrist -28.0971
lhand -10.085 24.0538
lfingers 7.12502
lthumb 15.9018 53.4209
rfemur -37.8352 21.0766 2.30267
rtibia 18.2236
rfoot -24.0482 -31.1832
rtoes 30.745
lfemur -33.8652 -10.3879 -17.6719
ltibia 15.8242
lfoot -1.62464 14.796
ltoes -16.6039
